<?xml version="1.0" standalone="no"?>
<!DOCTYPE svg PUBLIC "-//W3C//DTD SVG 20010904//EN"
 "http://www.w3.org/TR/2001/REC-SVG-20010904/DTD/svg10.dtd">
<svg version="1.0" xmlns="http://www.w3.org/2000/svg"
 width="512.000000pt" height="512.000000pt" viewBox="0 0 512.000000 512.000000"
 preserveAspectRatio="xMidYMid meet">
<metadata>
Created by potrace 1.14, written by Peter Selinger 2001-2017
</metadata>
<g transform="translate(0.000000,512.000000) scale(0.100000,-0.100000)"
fill="#000000" stroke="none">
<path d="M1880 3800 l0 -660 463 2 462 3 3 198 2 197 745 0 745 0 0 460 0 460
-1210 0 -1210 0 0 -660z"/>
<path d="M380 3440 l0 -300 100 0 100 0 0 300 0 300 -100 0 -100 0 0 -300z"/>
<path d="M690 3440 l0 -300 120 0 120 0 0 300 0 300 -120 0 -120 0 0 -300z"/>
<path d="M1010 3440 l0 -300 130 0 130 0 0 300 0 300 -130 0 -130 0 0 -300z"/>
<path d="M1360 3440 l0 -300 185 0 185 0 0 300 0 300 -185 0 -185 0 0 -300z"/>
<path d="M1310 2560 l0 -460 1225 0 1225 0 0 460 0 460 -1225 0 -1225 0 0
-460z"/>
<path d="M380 1680 l0 -300 100 0 100 0 0 300 0 300 -100 0 -100 0 0 -300z"/>
<path d="M690 1680 l0 -300 120 0 120 0 0 300 0 300 -120 0 -120 0 0 -300z"/>
<path d="M1010 1680 l0 -300 130 0 130 0 0 300 0 300 -130 0 -130 0 0 -300z"/>
<path d="M1360 1680 l0 -300 185 0 185 0 0 300 0 300 -185 0 -185 0 0 -300z"/>
<path d="M1880 1320 l0 -660 1210 0 1210 0 0 465 0 465 -745 0 -745 0 0 195 0
195 -465 0 -465 0 0 -660z"/>
</g>
</svg>
