<svg width="385" height="132" viewBox="0 0 385 132" fill="none" xmlns="http://www.w3.org/2000/svg">
<g clip-path="url(#clip0_1_2)">
<path d="M89.2914 86.0646H99.5717V69.3969H89.2914V86.0646ZM79.578 86.0646H86.8347V69.3969H79.578V86.0646ZM70.7717 86.0646H77.3481V69.3969H70.7717V86.0646ZM62.0032 86.0646H67.8615V69.3969H62.0032V86.0646ZM53.2347 86.0646H58.3749V69.3969H53.2347V86.0646ZM44.4284 86.0646H48.8883V69.3969H44.4284V86.0646ZM35.6599 86.0646H39.3639V69.3969H35.6599V86.0646ZM26.8536 86.0646H29.8773V69.3969H26.8536V86.0646ZM18.0851 86.0646H20.3906V69.3969H18.0851V86.0646ZM9.27883 86.0646H10.904V69.3969H9.27883V86.0646ZM0.170166 86.0646H1.41741V69.3969H0.170166V86.0646ZM99.5717 20.83H89.2914V37.4599H99.5717V20.83ZM1.41741 20.83H0.170166V37.4599H1.41741V20.83ZM10.904 20.83H9.27883V37.4599H10.904V20.83ZM20.3906 20.83H18.0851V37.4599H20.3906V20.83ZM29.8773 20.83H26.8536V37.4599H29.8773V20.83ZM39.3639 20.83H35.6599V37.4599H39.3639V20.83ZM48.8883 20.83H44.4284V37.4599H48.8883V20.83ZM58.3749 20.83H53.2347V37.4599H58.3749V20.83ZM67.8615 20.83H62.0032V37.4599H67.8615V20.83ZM77.3481 20.83H70.7717V37.4599H77.3481V20.83ZM86.8347 20.83H79.578V37.4599H86.8347V20.83ZM302.608 40.5969C322.753 40.5969 350.041 40.5969 370.186 40.5969V66.2221H302.608V40.5969ZM87.8174 40.6347C107.962 40.6347 135.25 40.6347 155.395 40.6347V66.2221H87.8174V40.6347Z" fill="#EE761C"/>
<path d="M103.351 118.455H113.065V120.95H106.904V123.557H112.573V126.052H106.904V128.735H113.065V131.23H103.351V118.455ZM115.106 118.455H118.658V128.735H124.441V131.23H115.106V118.455ZM125.915 118.455H135.666V120.95H129.506L129.468 123.557H135.175V126.052H129.468L129.506 128.735H135.666V131.23H125.915V118.455ZM137.934 118.455H141.449V124.049L145.569 118.455H149.726L145.304 124.087L150.104 131.23H145.72L141.487 124.427L141.449 131.23H137.934V118.455ZM150.444 118.455H161.858V120.95H157.89V131.23H154.299V120.95H150.444V118.455ZM163.181 118.455H168.737C170.702 118.455 172.139 118.795 173.008 119.438C173.688 119.967 174.066 120.723 174.066 121.706C174.066 122.688 173.726 123.444 173.084 124.011C172.479 124.465 171.723 124.767 170.778 124.88V124.956C171.874 124.956 172.63 125.258 173.046 125.825C173.31 126.203 173.537 127.035 173.688 128.282C173.877 129.529 174.066 130.512 174.331 131.23H170.476C170.362 130.965 170.287 130.361 170.173 129.454C170.022 128.244 169.947 127.602 169.947 127.564C169.871 127.148 169.72 126.846 169.417 126.657C169.153 126.468 168.51 126.392 167.565 126.392H166.734L166.696 131.23H163.181V118.455ZM166.734 120.95L166.696 123.898H168.359C168.964 123.898 169.417 123.784 169.758 123.595C170.136 123.331 170.362 122.915 170.362 122.348C170.362 121.857 170.173 121.517 169.833 121.29C169.455 121.063 168.926 120.95 168.246 120.95H166.734ZM175.54 125.069C175.54 123.066 175.994 121.517 176.939 120.345C178.11 118.909 179.887 118.191 182.306 118.191C184.12 118.191 185.594 118.682 186.728 119.627C188.126 120.798 188.806 122.537 188.806 124.88C188.806 126.77 188.315 128.282 187.332 129.454C186.199 130.814 184.536 131.532 182.343 131.532C180 131.532 178.262 130.852 177.052 129.491C176.032 128.32 175.54 126.846 175.54 125.069ZM179.282 124.843C179.282 126.052 179.509 126.997 179.887 127.715C180.378 128.622 181.134 129.076 182.192 129.076H182.343C183.251 129.076 183.931 128.698 184.384 127.98C184.838 127.261 185.065 126.241 185.065 124.918C185.065 123.595 184.876 122.613 184.46 121.932C183.969 121.101 183.213 120.685 182.192 120.685C181.134 120.685 180.378 121.101 179.887 121.97C179.509 122.688 179.282 123.633 179.282 124.843ZM189.373 118.455H200.825V120.95H196.819V131.23H193.266V120.95H189.373V118.455ZM202.186 118.455H211.899V120.95H205.739V123.557H211.408V126.052H205.739V128.735H211.899V131.23H202.186V118.455ZM222.028 122.461C222.028 121.932 221.802 121.479 221.424 121.176C221.008 120.836 220.517 120.685 219.874 120.685C218.891 120.685 218.211 121.063 217.795 121.857C217.455 122.537 217.266 123.557 217.266 124.956C217.266 126.203 217.455 127.148 217.795 127.828C218.173 128.622 218.816 129.038 219.685 129.038C219.761 129.038 219.874 129.038 220.025 129.038C220.743 128.962 221.273 128.773 221.575 128.471C221.877 128.206 222.028 127.791 222.104 127.224H225.77C225.77 128.471 225.392 129.454 224.561 130.209C223.616 131.079 222.142 131.532 220.139 131.532H219.761C217.758 131.532 216.17 130.928 215.112 129.794C214.054 128.698 213.525 127.186 213.525 125.296L213.562 124.88C213.562 122.575 214.129 120.874 215.263 119.74C216.321 118.72 217.795 118.191 219.685 118.191C221.651 118.191 223.2 118.606 224.258 119.362C225.279 120.08 225.77 121.101 225.77 122.386C225.77 122.424 225.77 122.461 225.732 122.461H222.028ZM227.66 118.455H231.213V123.52H235.559V118.455H239.112V131.23H235.559L235.521 125.976H231.175L231.213 131.23H227.66V118.455ZM241.342 118.455H246.331L250.602 127.98L250.64 127.904V118.455H253.814V131.23H248.901L244.592 121.479L244.554 131.23H241.342V118.455ZM256.082 118.455H259.635V131.23H256.082V118.455ZM261.525 127.186H265.077C265.077 127.639 265.228 128.055 265.455 128.357C265.795 128.773 266.287 129 267.005 129C267.647 129 268.139 128.887 268.517 128.622C268.895 128.395 269.046 128.093 269.046 127.715C269.046 127.11 268.63 126.657 267.723 126.354C267.118 126.203 266.702 126.09 266.514 126.014C265.417 125.787 264.662 125.561 264.208 125.409C263.414 125.107 262.847 124.767 262.432 124.276C261.978 123.746 261.751 123.066 261.751 122.235C261.751 120.874 262.28 119.816 263.339 119.135C264.284 118.531 265.569 118.191 267.232 118.191C268.932 118.191 270.217 118.531 271.087 119.211C271.918 119.854 272.334 120.723 272.334 121.857C272.334 122.046 272.334 122.159 272.296 122.235H268.781C268.781 121.743 268.63 121.365 268.328 121.101C268.063 120.798 267.61 120.685 267.08 120.685C266.589 120.685 266.211 120.798 265.909 121.025C265.606 121.29 265.455 121.554 265.455 121.894C265.455 122.537 266.173 123.028 267.572 123.331C269.008 123.671 269.84 123.86 270.066 123.935C270.936 124.238 271.616 124.578 271.994 125.031C272.523 125.598 272.788 126.354 272.788 127.337C272.788 128.698 272.221 129.756 271.125 130.512C270.104 131.192 268.781 131.532 267.156 131.532C263.414 131.532 261.525 130.058 261.525 127.186ZM282.765 122.461C282.765 121.932 282.577 121.479 282.199 121.176C281.783 120.836 281.254 120.685 280.611 120.685C279.666 120.685 278.986 121.063 278.57 121.857C278.192 122.537 278.041 123.557 278.041 124.956C278.041 126.203 278.192 127.148 278.532 127.828C278.948 128.622 279.591 129.038 280.46 129.038C280.536 129.038 280.649 129.038 280.8 129.038C281.518 128.962 282.047 128.773 282.35 128.471C282.614 128.206 282.803 127.791 282.841 127.224H286.545C286.545 128.471 286.129 129.454 285.336 130.209C284.391 131.079 282.917 131.532 280.914 131.532H280.536C278.532 131.532 276.945 130.928 275.849 129.794C274.828 128.698 274.299 127.186 274.299 125.296L274.337 124.88C274.337 122.575 274.904 120.874 276.038 119.74C277.058 118.72 278.532 118.191 280.46 118.191C282.425 118.191 283.937 118.606 285.033 119.362C286.054 120.08 286.545 121.101 286.545 122.386C286.545 122.424 286.507 122.461 286.507 122.461H282.765ZM288.435 118.455H291.95V123.52H296.296V118.455H299.849V131.23H296.296V125.976H291.95V131.23H288.435V118.455ZM302.192 118.455H311.906V120.95H305.745V123.557H311.414V126.052H305.745V128.735H311.906V131.23H302.192V118.455ZM318.784 118.455H322.299L323.471 127.753L325.588 118.455H329.896L331.786 127.677L332.995 118.455H336.17L333.978 131.23H329.745L327.553 121.781L325.21 131.23H320.977L318.784 118.455ZM337.493 118.455H347.244V120.95H341.084L341.046 123.557H346.753V126.052H341.046L341.084 128.735H347.244V131.23H337.493V118.455ZM349.247 118.455H354.803C356.769 118.455 358.205 118.795 359.036 119.438C359.754 119.967 360.095 120.723 360.095 121.706C360.095 122.688 359.792 123.444 359.112 124.011C358.545 124.465 357.789 124.767 356.844 124.88V124.956C357.94 124.956 358.696 125.258 359.112 125.825C359.377 126.203 359.603 127.035 359.754 128.282C359.906 129.529 360.132 130.512 360.359 131.23H356.542C356.428 130.965 356.315 130.361 356.24 129.454C356.088 128.244 356.013 127.602 356.013 127.564C355.937 127.148 355.786 126.846 355.484 126.657C355.219 126.468 354.577 126.392 353.632 126.392H352.8L352.762 131.23H349.247V118.455ZM352.8 120.95L352.762 123.898H354.425C355.03 123.898 355.484 123.784 355.786 123.595C356.202 123.331 356.391 122.915 356.391 122.348C356.391 121.857 356.24 121.517 355.862 121.29C355.521 121.063 354.992 120.95 354.312 120.95H352.8ZM362.287 118.455H365.802L365.764 124.049L369.921 118.455H374.079L369.657 124.087L374.419 131.23H370.035L365.802 124.427L365.764 131.23H362.287V118.455ZM375.78 118.455H385.531V120.95H379.37L379.332 123.557H385.04V126.052H379.332L379.37 128.735H385.531V131.23H375.78V118.455Z" fill="#2B2A29"/>
<path d="M324.567 105.832H318.218V99.104V80.2441V69.3591H343.956C343.956 72.4583 343.956 76.0488 343.956 80.2441H385.229V105.832H324.567Z" fill="#2B2A29"/>
<path d="M318.218 37.4599V26.6126V7.71499V0.987427H324.567H385.229V26.6126H343.956C343.956 30.9591 343.956 34.5118 343.956 37.4599H318.218Z" fill="#2B2A29"/>
<path d="M103.465 37.4599V26.6126V7.75277V1.02521H109.776H170.438V26.6126H129.165C129.165 30.9969 129.165 34.5496 129.165 37.4599H103.465Z" fill="#2B2A29"/>
<path d="M109.776 105.831H103.465V99.1417V80.2441V69.3969H129.165C129.165 72.4961 129.165 76.0866 129.165 80.2441H170.438V105.831H109.776Z" fill="#2B2A29"/>
<path d="M227.017 1.02521L213.978 60.137L203.206 1.02521H174.671L197.764 105.832H230.192L240.397 59.5323L250.602 105.832H282.992L306.085 1.02521H277.587L266.778 60.137L253.776 1.02521H253.285H227.509H227.017Z" fill="#2B2A29"/>
</g>
<defs>
<clipPath id="clip0_1_2">
<rect width="385" height="132" fill="white"/>
</clipPath>
</defs>
</svg>
